<?xml version="1.0" encoding="UTF-8"?>
<svg id="Layer_1" xmlns="http://www.w3.org/2000/svg" version="1.1" viewBox="0 0 43.2 43.3">
  <!-- Generator: Adobe Illustrator 29.8.3, SVG Export Plug-In . SVG Version: 2.1.1 Build 3)  -->
  <defs>
    <style>
      .st0 {
        fill: #d22b2b;
        fill-rule: evenodd;
      }
    </style>
  </defs>
  <path class="st0" d="M21.6,2.2c.3,0,.7,0,.9.3l20.1,15.7v19.6c0,.8-.4,1.8-1,2.4s-1.6,1-2.4,1h-14.6v-15h-6v15H4.1c-.8,0-1.9-.3-2.5-.9-.6-.6-1-1.3-1-2.1v-19L20.6,2.5c.3-.2.6-.3.9-.3h.1ZM27.6,26.2v12h12v-18.6L21.6,5.6,3.6,20.2v18h12v-12c0-.8.3-1.6.9-2.1.6-.6,1.3-.9,2.1-.9h6c.8,0,1.6.3,2.1.9.6.6.9,1.3.9,2.1Z"/>
</svg>