<?xml version="1.0" encoding="UTF-8"?>
<svg id="Layer_1" xmlns="http://www.w3.org/2000/svg" version="1.1" viewBox="0 0 43.2 43.3">
  <!-- Generator: Adobe Illustrator 29.8.3, SVG Export Plug-In . SVG Version: 2.1.1 Build 3)  -->
  <defs>
    <style>
      .st0 {
        fill: #151821;
        fill-rule: evenodd;
      }
    </style>
  </defs>
  <path class="st0" d="M3.6.7h36c.8,0,1.6.3,2.1.9s.9,1.3.9,2.1v36c0,.8-.3,1.6-.9,2.1s-1.3.9-2.1.9H3.6c-.8,0-1.6-.3-2.1-.9s-.9-1.3-.9-2.1V3.7c0-.8.3-1.6.9-2.1.6-.5,1.3-.9,2.1-.9ZM3.6,39.7h3v-4h-3v4ZM33.6,39.7H9.6v-17h24v17ZM36.6,39.7h3v-4h-3v4ZM36.6,32.7h3v-5h-3v5ZM36.6,24.7h3v-5h-3v5ZM36.6,16.7h3v-5h-3v5ZM36.6,8.7h3V3.7h-3v5ZM33.6,3.7H9.6v16h24V3.7ZM3.6,3.7h3v5h-3V3.7ZM3.6,11.7h3v5h-3v-5ZM3.6,19.7h3v5h-3v-5ZM3.6,27.7h3v5h-3v-5Z"/>
</svg>