<?xml version="1.0" encoding="UTF-8"?>
<svg id="Layer_1" xmlns="http://www.w3.org/2000/svg" version="1.1" viewBox="0 0 43.2 43.3">
  <!-- Generator: Adobe Illustrator 29.8.3, SVG Export Plug-In . SVG Version: 2.1.1 Build 3)  -->
  <path d="M15.8.6c-2.9,0-5.7.8-8.1,2.4l9.6,9.6c.3.3.6.6.8,1,.2.4.3.8.3,1.2,0,.4,0,.8-.2,1.2-.1.4-.4.8-.6,1.1-.3.3-.7.5-1.1.6-.4.1-.8.2-1.2.2-.4,0-.8-.1-1.2-.3-.4-.2-.7-.5-1-.8L3.2,7.2C1.5,9.7.6,12.7.6,15.8c0,4,1.6,7.9,4.5,10.7,2.8,2.8,6.7,4.4,10.7,4.5,1.3,0,2.6-.1,3.9-.5l10,10.1c1.4,1.4,3.3,2.2,5.3,2.2s3.9-.8,5.3-2.2,2.2-3.3,2.2-5.3-.8-3.9-2.2-5.3l-10-10c.3-1.3.5-2.6.5-3.9,0-2-.3-4-1.1-5.8-.7-1.9-1.8-3.5-3.2-5s-3.1-2.6-4.9-3.3c-1.8-.8-3.8-1.2-5.8-1.2ZM27.8,15.8c0,1.1-.2,2.1-.4,3.1l-.5,1.7,1.2,1.2,10,10.1c.4.4.8.9,1,1.4.2.5.4,1.1.3,1.7,0,.6,0,1.2-.3,1.7-.2.5-.6,1-1,1.4-.4.4-.9.8-1.4,1-.5.2-1.1.4-1.7.4s-1.2-.1-1.7-.4c-.5-.2-1-.6-1.4-1l-10.1-10-1.2-1.2-1.7.5c-1,.3-2.1.4-3.1.4-3.2,0-6.2-1.2-8.6-3.4-1.2-1.1-2.1-2.4-2.7-3.9-.6-1.5-.9-3.1-.9-4.7,0-1.1.2-2.2.4-3.3l6.6,6.6c.6.6,1.2,1.1,2,1.4.7.3,1.6.5,2.4.6.8,0,1.6-.1,2.4-.4.8-.3,1.5-.7,2.1-1.3.6-.6,1-1.3,1.3-2.1.3-.8.4-1.6.4-2.4,0-.8-.2-1.6-.6-2.4-.3-.7-.8-1.4-1.4-2l-6.6-6.6c1-.3,2-.5,3-.5,3.2,0,6.2,1.2,8.5,3.4,2.3,2.4,3.6,5.5,3.6,8.9Z"/>
</svg>