<?xml version="1.0" encoding="UTF-8"?>
<svg id="Layer_1" xmlns="http://www.w3.org/2000/svg" version="1.1" viewBox="0 0 43.2 43.3">
  <!-- Generator: Adobe Illustrator 29.8.3, SVG Export Plug-In . SVG Version: 2.1.1 Build 3)  -->
  <defs>
    <style>
      .st0 {
        fill-rule: evenodd;
      }

      .st0, .st1 {
        fill: #d22b2b;
      }
    </style>
  </defs>
  <path class="st0" d="M3.6,2.7h36c.8,0,1.6.3,2.1.9.6.6.9,1.3.9,2.1v26c0,.8-.3,1.6-.9,2.1s-1.3.9-2.1.9H3.6c-.8,0-1.6-.3-2.1-.9s-.9-1.3-.9-2.1V5.7c0-.8.3-1.6.9-2.1.6-.6,1.3-.9,2.1-.9ZM3.6,31.7h36V5.7H3.6v26Z"/>
  <path class="st1" d="M33.6,40.7v-3H9.6v3h24Z"/>
</svg>